<?xml version="1.0" encoding="utf-8"?>
<!-- Generator: Adobe Illustrator 19.2.1, SVG Export Plug-In . SVG Version: 6.00 Build 0)  -->
<svg version="1.1" id="Layer_3" xmlns="http://www.w3.org/2000/svg" xmlns:xlink="http://www.w3.org/1999/xlink" x="0px" y="0px"
	 viewBox="0 0 36.3 72.1" style="enable-background:new 0 0 36.3 72.1;" xml:space="preserve">
<style type="text/css">
	.st0{opacity:0.5;}
	.st1{fill:#FFFFFF;}
</style>
<symbol  id="flash0.ai_x2F_Layer_3_x2F__x3C_Path_x3E_" viewBox="-14.1 -3.9 28.3 7.9">
	<g id="Layer_1_3_" class="st0">
		<path class="st1" d="M14.1-0.1c0-1.1-1.4-2-4.2-2.8C7.2-3.6,3.8-3.9-0.2-3.9c-4,0-7.3,0.3-9.9,1.1c-2.7,0.7-4,1.7-4,2.8
			c0,1.1,1.4,2.1,4.1,2.8c2.8,0.8,6.1,1.2,10,1.2s7.2-0.4,10-1.2C12.8,2,14.1,1,14.1-0.1z"/>
	</g>
</symbol>
<use xlink:href="#flash0.ai_x2F_Layer_3_x2F__x3C_Path_x3E_"  width="28.3" height="7.9" id="XMLID_1_" x="-14.1" y="-3.9" transform="matrix(-1 0 0 -1 17.5992 68.175)" style="overflow:visible;"/>
<g>
	<path class="st1" d="M9.9,40c2.1,4.5,3.5,9.3,4.4,14.2c0.5,2.5,0.9,5,1.1,7.4c0.2,1.4,0.3,2.8,0.4,4.2c0,0.3,0.3,1.8,0.1,2.1
		c-0.1,0.1-0.5,0.1-0.5,0.1c-0.9,0.2-1.6,0.4-2.5,0.3c-0.6-0.1-1.1-0.2-1.6-0.4c-0.7-0.3-0.6-0.5-0.5-1.2c0.2-2.5,0.2-5,0.1-7.6
		c-0.2-8.9-1-19-5.9-26.6C7.3,34.5,8.7,37.4,9.9,40C13.3,47.3,8.2,36.4,9.9,40z"/>
	<path class="st1" d="M6.1,46.7c2.5,3.2,4.2,7,5.3,10.9c0.5,1.9,0.9,3.9,1.2,5.8c0.1,1.1,0.3,2.3,0.3,3.4c0,0.3,0.2,1.3,0.1,1.4
		c-0.1,0.1-0.4,0.1-0.5,0.2c-1.2,0.4-3.1,1-4.1-0.1c-0.4-0.4-0.1-0.8-0.1-1.4c0.1-0.5,0.1-1.1,0.1-1.6c0.1-1,0.1-2,0-3.1
		c-0.3-7.8-2.7-15.5-8.5-21C2.5,42.4,4.5,44.5,6.1,46.7C10.3,52,4,44,6.1,46.7z"/>
	<path class="st1" d="M26.3,35.7c2-4.2,4.3-8.5,7.2-12.1c-2.9,4.3-4.7,9.3-6.1,14.3c-1.5,5.5-2.3,11.2-2.8,17
		c-0.2,2.8-0.4,5.7-0.4,8.5c0,0.8,0,1.5,0,2.3c0,0.5,0.2,1.4,0.1,1.9c0.1,0.3,0,0.4-0.4,0.4c-0.1,0-0.3,0.1-0.4,0.1
		c-0.4,0.1-0.7,0.1-1.1,0.2c-0.7,0.1-1.4,0.1-2.1,0c-0.5-0.1-1.6-0.1-2-0.5c-0.4-0.3-0.1-1.4-0.1-1.9c0.1-1.4,0.2-2.9,0.4-4.3
		c0.3-2.9,0.8-5.7,1.5-8.5C21.7,47,23.7,41.2,26.3,35.7C28.8,30.5,21.5,45.9,26.3,35.7z"/>
	<path class="st1" d="M29.3,47.8c2.2-0.8,5-0.5,7,0.7c-3.2-1-6.3-0.3-8,2.8c-2,3.6-2.3,8.5-2.1,12.5c0,0.8,0.1,1.5,0.2,2.3
		c0.1,0.7,0.3,1.1-0.3,1.6c-0.7,0.6-1.6,0.9-2.5,0.8c-0.4,0-1.2-0.1-1.6-0.3c-0.3-0.3-0.2-0.4-0.2-0.8c0-0.2,0-0.5,0-0.7
		c0.1-1.1,0.1-2.3,0.2-3.4C22.5,58,23.6,50,29.3,47.8C30.8,47.2,24.6,49.6,29.3,47.8z"/>
	<path class="st1" d="M15.8,0.1c1.8,0.1,3.5,0.6,5,1.5C27,4.7,28.5,11.6,27.6,18c-0.5,3.9-2.2,7.3-3.4,10.9
		c-1.3,3.6-2.2,7.3-2.9,11.1c-1.4,7.3-1.7,14.8-1.4,22.2c0,1.1,0.1,2.2,0.2,3.2c0,0.7,0.3,1.9,0.1,2.6c-0.3,1.2-2.4,1.3-3.4,1.2
		c-0.6-0.1-1.8-0.4-2.1-0.9c-0.2-0.4-0.1-1.4-0.1-1.9c-0.1-1.6-0.1-3.1,0-4.7c0.2-7.7,1.1-15.4,2.9-22.9c0.9-3.8,2.1-7.6,3.4-11.3
		c1.3-3.6,3-7,3.6-10.9c0.4-3,0.2-6.3-1.4-8.9c-1.7-2.8-4.6-4.9-7.9-5C12,2.5,9.2,4.7,8.8,7.9c-0.4,3.3,0.8,6.7,3.4,8.8
		c1.2,1,2.8,1.8,4.5,1.4c1.4-0.4,2.6-1.4,3.2-2.7c1.9-3.5-0.4-7.4-4.2-7.9c-1.1-0.1-2.5-0.2-3.2,0.8c-0.7,1-0.6,2.6-0.2,3.6
		c0.6,1.3,2,2.7,3.4,2.8c1.6,0.1,2.9-1.4,3.3-2.8c0,0.7,0.1,1.2-0.2,1.8c-0.3,0.6-0.7,1-1.2,1.3c-1.2,0.8-2.7,0.5-3.9,0
		c-2.5-1.2-4.1-4.5-2.9-7.1c1-2.4,3.9-3,6.2-2.3c2.4,0.7,4.2,2.9,5,5.2c0.8,2.2,0.8,4.9-0.5,6.9c-1.4,2.1-3.8,3-6.3,2.7
		C9.7,19.7,6.3,14.9,6,9.6C5.9,7.2,6.8,4.3,8.4,2.5C10.3,0.6,13.3-0.3,15.8,0.1C18.3,0.2,14.3-0.2,15.8,0.1z"/>
</g>
</svg>
