<?xml version="1.0" encoding="utf-8"?>
<!-- Generator: Adobe Illustrator 19.2.1, SVG Export Plug-In . SVG Version: 6.00 Build 0)  -->
<svg version="1.1" id="Layer_1" xmlns="http://www.w3.org/2000/svg" xmlns:xlink="http://www.w3.org/1999/xlink" x="0px" y="0px"
	 viewBox="0 0 1024 768" style="enable-background:new 0 0 1024 768;" xml:space="preserve">
<style type="text/css">
	.st0{fill:#F0F4F8;}
	.st1{filter:url(#filter3802);}
	.st2{fill:#FFFFFF;}
	.st3{fill:none;stroke:#FFFFFF;stroke-width:3;stroke-linecap:round;stroke-linejoin:bevel;}
	.st4{fill:#E4EAED;}
	.st5{fill:#EEEEEC;}
</style>
<filter  height="1.2636" id="filter3802" width="1.131" x="-.065483" y="-.13182">
	<feGaussianBlur  id="feGaussianBlur3804" stdDeviation="8.688477"></feGaussianBlur>
</filter>
<g id="layer1">
	<g id="g3885">
		<g>
			<path id="path2740" class="st0" d="M337.4,133.9c-121.9,0-220.9,74-220.9,165.1c0,18.1,4,35.6,11.3,51.9
				C64.1,369.9,19,416.4,19,470.8c0,71.3,77.4,129.1,172.8,129.1c32,0,61.9-6.6,87.7-17.9c36.9,57.6,130.9,98.5,240.9,98.5
				c76.6,0,145.3-19.8,192.5-51.3c23.2,4.8,48.2,7.4,74.1,7.4c125.2,0,226.7-60.3,226.7-134.5c0-72-95.5-130.8-215.4-134.2
				c1.1-6.1,1.7-12.2,1.7-18.5c0-72.6-78.8-131.5-175.9-131.5c-30.3,0-58.9,5.8-83.8,15.9C506.4,175,428.3,133.9,337.4,133.9
				L337.4,133.9z"/>
			<g id="path2782" class="st1">
				<path class="st2" d="M328,179.5c-50.4,0-95.2,15.7-125.1,38s-43.8,48.3-43.8,75c0,10.5,2.2,20.5,6.7,30.8
					c6.1,13.7,6,29.3-0.3,42.9c-6.3,13.6-18.1,23.9-32.4,28.1c-47.8,14.3-71.6,44.5-71.6,70c0,16.8,8.6,33.8,29.7,49.6
					s53.8,27.4,91,27.4c24.9,0,47.8-5.1,66.7-13.5c23.4-10.3,50.9-2.1,64.8,19.5c21.3,33.2,100.1,74.5,197.2,74.5
					c67.6,0,127.5-18.4,163.7-42.6c11.6-7.7,25.7-10.5,39.3-7.7c19.8,4.1,41.2,6.4,63.6,6.4c54.2,0,102.7-13.7,133.7-32.1
					c31-18.4,40.9-37,40.9-50.3c0-13-9-30.5-38.1-48.6c-29.1-18-74.8-32.1-126.7-33.6c-15.2-0.4-29.5-7.5-39-19.4
					c-9.5-11.9-13.4-27.3-10.6-42.3c0.6-3,0.8-5.8,0.8-8.8c0-17.4-9-35.1-30.7-51.3s-55.1-28.1-93.2-28.1
					c-23.7,0-45.7,4.6-64.2,12.1c-24.1,9.8-51.7,0.3-64.7-22.2C463.9,215.5,403.2,179.5,328,179.5L328,179.5z"/>
				<path class="st3" d="M328,179.5c-50.4,0-95.2,15.7-125.1,38s-43.8,48.3-43.8,75c0,10.5,2.2,20.5,6.7,30.8
					c6.1,13.7,6,29.3-0.3,42.9c-6.3,13.6-18.1,23.9-32.4,28.1c-47.8,14.3-71.6,44.5-71.6,70c0,16.8,8.6,33.8,29.7,49.6
					s53.8,27.4,91,27.4c24.9,0,47.8-5.1,66.7-13.5c23.4-10.3,50.9-2.1,64.8,19.5c21.3,33.2,100.1,74.5,197.2,74.5
					c67.6,0,127.5-18.4,163.7-42.6c11.6-7.7,25.7-10.5,39.3-7.7c19.8,4.1,41.2,6.4,63.6,6.4c54.2,0,102.7-13.7,133.7-32.1
					c31-18.4,40.9-37,40.9-50.3c0-13-9-30.5-38.1-48.6c-29.1-18-74.8-32.1-126.7-33.6c-15.2-0.4-29.5-7.5-39-19.4
					c-9.5-11.9-13.4-27.3-10.6-42.3c0.6-3,0.8-5.8,0.8-8.8c0-17.4-9-35.1-30.7-51.3s-55.1-28.1-93.2-28.1
					c-23.7,0-45.7,4.6-64.2,12.1c-24.1,9.8-51.7,0.3-64.7-22.2C463.9,215.5,403.2,179.5,328,179.5L328,179.5z"/>
			</g>
		</g>
		<g>
			<g>
				<path id="path3810" class="st4" d="M704.1,627l-29.2,16c0,0-62.7-51.3-87.5-75C598.8,571.8,704.1,627,704.1,627L704.1,627z"/>
				<path id="path3812" class="st4" d="M242.8,588.4c0,0-2.6-55.5-27.3-79.2c11.3,3.8,56.5,63.2,56.5,63.2L242.8,588.4z"/>
				<path id="path3814" class="st4" d="M100.8,365.9l29.2-16c0,0,2.6,55.5,27.3,79.2C146,425.2,100.8,365.9,100.8,365.9L100.8,365.9
					z"/>
				<path id="path3816" class="st4" d="M324.7,432.7c71.2-142.4,316.2,17,316.2,17C636.9,449.7,409,313.3,324.7,432.7z"/>
			</g>
			<path id="path3820" class="st5" d="M429.3,324.4C428.1,346.9,330,418,330,418C327.2,419.4,474.1,342.5,429.3,324.4z"/>
		</g>
	</g>
</g>
</svg>
