<?xml version="1.0" encoding="utf-8"?>
<!-- Generator: Adobe Illustrator 19.2.1, SVG Export Plug-In . SVG Version: 6.00 Build 0)  -->
<svg version="1.1" id="Layer_3" xmlns="http://www.w3.org/2000/svg" xmlns:xlink="http://www.w3.org/1999/xlink" x="0px" y="0px"
	 viewBox="0 0 36.3 72.1" style="enable-background:new 0 0 36.3 72.1;" xml:space="preserve">
<style type="text/css">
	.st0{opacity:0.5;}
	.st1{fill:#FFFFFF;}
</style>
<symbol  id="flash0.ai_x2F_Layer_3_x2F__x3C_Path_x3E_" viewBox="-14.1 -3.9 28.3 7.9">
	<g id="Layer_1_2_" class="st0">
		<path class="st1" d="M14.1-0.1c0-1.1-1.4-2-4.2-2.8C7.2-3.6,3.8-3.9-0.2-3.9c-4,0-7.3,0.3-9.9,1.1c-2.7,0.7-4,1.7-4,2.8
			c0,1.1,1.4,2.1,4.1,2.8c2.8,0.8,6.1,1.2,10,1.2s7.2-0.4,10-1.2C12.8,2,14.1,1,14.1-0.1z"/>
	</g>
</symbol>
<use xlink:href="#flash0.ai_x2F_Layer_3_x2F__x3C_Path_x3E_"  width="28.3" height="7.9" id="XMLID_1_" x="-14.1" y="-3.9" transform="matrix(1 0 0 -1 18.6998 68.175)" style="overflow:visible;"/>
<g>
	<path class="st1" d="M26.4,40c1.2-2.7,2.7-5.6,4.9-7.5c-4.9,7.7-5.7,17.8-5.9,26.6c-0.1,2.5,0,5.1,0.1,7.6c0,0.7,0.2,0.9-0.5,1.2
		c-0.5,0.2-1.1,0.3-1.6,0.4c-0.9,0.1-1.6-0.1-2.5-0.3c-0.1,0-0.5-0.1-0.5-0.1c-0.2-0.2,0.1-1.7,0.1-2.1c0.1-1.4,0.2-2.8,0.4-4.2
		c0.3-2.5,0.7-5,1.1-7.4C22.9,49.4,24.3,44.6,26.4,40C28.1,36.4,23,47.3,26.4,40z"/>
	<path class="st1" d="M30.1,46.7c1.7-2.1,3.6-4.3,6.1-5.4c-5.8,5.5-8.2,13.2-8.5,21c0,1,0,2,0,3.1c0,0.5,0.1,1.1,0.1,1.6
		c0.1,0.5,0.3,1-0.1,1.4c-1,1.1-2.9,0.5-4.1,0.1c-0.1,0-0.4-0.1-0.5-0.2c-0.1-0.2,0-1.2,0.1-1.4c0.1-1.1,0.2-2.3,0.3-3.4
		c0.3-2,0.6-3.9,1.2-5.8C25.9,53.6,27.6,49.9,30.1,46.7C32.2,44,25.9,52,30.1,46.7z"/>
	<path class="st1" d="M9.9,35.7c2.6,5.5,4.7,11.3,6,17.3c0.6,2.8,1.1,5.7,1.5,8.5c0.2,1.4,0.3,2.9,0.4,4.3c0,0.5,0.3,1.6-0.1,1.9
		c-0.4,0.4-1.5,0.4-2,0.5c-0.7,0.1-1.4,0.1-2.1,0c-0.4,0-0.7-0.1-1.1-0.2c-0.1,0-0.3-0.1-0.4-0.1c-0.4,0-0.5-0.1-0.4-0.4
		c-0.1-0.5,0.1-1.3,0.1-1.9c0-0.8,0-1.5,0-2.3c0-2.8-0.2-5.7-0.4-8.5c-0.5-5.7-1.3-11.4-2.8-17c-1.3-5-3.2-9.9-6.1-14.3
		C5.7,27.2,7.9,31.4,9.9,35.7C14.8,45.9,7.5,30.5,9.9,35.7z"/>
	<path class="st1" d="M7,47.8c5.7,2.2,6.8,10.3,7.3,15.5c0.1,1.1,0.2,2.3,0.2,3.4c0,0.2,0,0.5,0,0.7c0,0.5,0.1,0.6-0.2,0.8
		c-0.4,0.3-1.1,0.3-1.6,0.3c-0.9,0-1.8-0.2-2.5-0.8c-0.6-0.5-0.4-0.9-0.3-1.6c0.1-0.8,0.1-1.5,0.2-2.3c0.1-4.1-0.1-8.9-2.1-12.5
		c-1.7-3.1-4.8-3.8-8-2.8C2,47.2,4.8,46.9,7,47.8C11.7,49.6,5.5,47.2,7,47.8z"/>
	<path class="st1" d="M20.5,0.1C23-0.3,26,0.6,27.9,2.5c1.6,1.7,2.6,4.7,2.4,7.1c-0.3,5.3-3.7,10.1-9.1,10.8
		c-2.4,0.3-4.9-0.6-6.3-2.7c-1.3-2-1.3-4.7-0.5-6.9c0.8-2.3,2.6-4.5,5-5.2c2.4-0.7,5.2-0.1,6.2,2.3c1.2,2.6-0.4,5.9-2.9,7.1
		c-1.3,0.6-2.7,0.8-3.9,0c-0.5-0.3-1-0.8-1.2-1.3c-0.3-0.6-0.2-1.2-0.2-1.8c0.3,1.4,1.7,2.9,3.3,2.8c1.4-0.1,2.9-1.5,3.4-2.8
		c0.5-1.1,0.6-2.6-0.2-3.6c-0.7-1-2.1-0.9-3.2-0.8c-3.9,0.5-6.1,4.4-4.2,7.9c0.7,1.3,1.8,2.3,3.2,2.7c1.6,0.5,3.2-0.4,4.5-1.4
		c2.6-2.1,3.8-5.5,3.4-8.8c-0.4-3.2-3.2-5.4-6.3-5.3c-3.3,0.2-6.2,2.3-7.9,5c-1.6,2.7-1.9,5.9-1.4,8.9c0.6,3.8,2.3,7.3,3.6,10.9
		c1.4,3.7,2.5,7.5,3.4,11.3c1.8,7.5,2.7,15.2,2.9,22.9c0,1.6,0,3.1,0,4.7c0,0.5,0.1,1.5-0.1,1.9c-0.3,0.6-1.5,0.9-2.1,0.9
		c-1,0.1-3.1,0-3.4-1.2c-0.2-0.7,0.1-1.8,0.1-2.6c0.1-1.1,0.1-2.2,0.2-3.2c0.3-7.4,0-14.9-1.4-22.2c-0.7-3.8-1.7-7.5-2.9-11.1
		c-1.3-3.6-2.9-7-3.4-10.9C7.8,11.6,9.3,4.7,15.4,1.5C17,0.7,18.7,0.2,20.5,0.1C22-0.2,18,0.2,20.5,0.1z"/>
</g>
</svg>
